<?xml version="1.0" encoding="UTF-8" standalone="no"?>
<!DOCTYPE svg PUBLIC "-//W3C//DTD SVG 1.1//EN" "http://www.w3.org/Graphics/SVG/1.1/DTD/svg11.dtd">
<svg width="4617px" height="1179px" version="1.1" xmlns="http://www.w3.org/2000/svg" xmlns:xlink="http://www.w3.org/1999/xlink">
    <g id="Letters">
        <path d="M470.692,242.444L700.951,242.444L700.951,12.186L470.692,242.444Z" style="fill:#683d98;" />
        <path d="M470.657,242.447L470.657,246.813L475.041,242.447L470.657,242.447Z" style="fill:#582d8a;" />
        <path d="M470.725,472.766L700.983,472.766L700.983,242.507L470.725,472.766Z" style="fill:#582d8a;" />
        <path d="M470.657,472.764L470.657,477.139L475.041,472.764L470.657,472.764Z" style="fill:#4c1e75;" />
        <path d="M470.725,703.088L700.983,703.088L700.983,472.83L470.725,703.088Z" style="fill:#4c1e75;" />
        <path d="M470.657,703.089L470.657,707.464L475.041,703.089L470.657,703.089Z" style="fill:#663994;" />
        <path d="M470.725,933.411L700.983,933.411L700.983,703.152L470.725,933.411Z" style="fill:#663994;" />
        <path d="M240.302,933.444L240.302,937.827L244.686,933.444L240.302,933.444Z" style="fill:#592f8c;" />
        <path d="M240.37,1163.77L470.628,1163.77L470.628,933.507L240.37,1163.77Z" style="fill:#592f8c;" />
        <path d="M696.61,472.802L700.985,472.802L700.985,468.418L696.61,472.802Z" style="fill:#5a308b;" />
        <path d="M700.921,242.472L470.662,242.472L470.662,472.731L700.921,242.472Z" style="fill:#5a308b;" />
        <path d="M696.58,703.119L700.955,703.119L700.955,698.752L696.58,703.119Z" style="fill:#391754;" />
        <path d="M700.888,472.798L470.63,472.798L470.63,703.057L700.888,472.798Z" style="fill:#391754;" />
        <path d="M240.355,472.764L240.355,477.139L244.722,472.764L240.355,472.764Z" style="fill:#663994;" />
        <path d="M240.415,703.088L470.673,703.088L470.673,472.83L240.415,703.088Z" style="fill:#663994;" />
        <path d="M466.27,703.119L470.645,703.119L470.645,698.752L466.27,703.119Z" style="fill:#572c87;" />
        <path d="M470.582,472.798L240.324,472.798L240.324,703.057L470.582,472.798Z" style="fill:#572c87;" />
        <path d="M696.647,933.444L701.022,933.444L701.022,929.069L696.647,933.444Z" style="fill:#582c8a;" />
        <path d="M700.953,703.121L470.695,703.121L470.695,933.387L700.953,703.121Z" style="fill:#582c8a;" />
        <path d="M10,703.074L10,707.449L14.375,703.074L10,703.074Z" style="fill:#663994;" />
        <path d="M10.06,933.402L240.318,933.402L240.318,703.136L10.06,933.402Z" style="fill:#663994;" />
        <path d="M235.982,933.429L240.357,933.429L240.357,929.054L235.982,933.429Z" style="fill:#481d73;" />
        <path d="M240.288,703.105L10.03,703.105L10.03,933.372L240.288,703.105Z" style="fill:#481d73;" />
        <path d="M10.043,703.105L240.302,703.105L240.302,472.847L10.043,703.105Z" style="fill:#663994;" />
        <path d="M700.921,933.476L470.662,933.476L470.662,1163.74L700.921,933.476Z" style="fill:#663994;" />
        <path d="M466.292,1163.81L470.659,1163.81L470.659,1159.42L466.292,1163.81Z" style="fill:#491b74;" />
        <path d="M470.598,933.476L240.34,933.476L240.34,1163.74L470.598,933.476Z" style="fill:#491b74;" />
        <path d="M240.305,1158.81L240.305,928.551L10.047,928.551L240.305,1158.81Z" style="fill:#3a1754;" />
        <path d="M4148.78,253.357L3920.15,253.357L3920.15,24.723L4148.78,253.357Z" style="fill:#db217e;" />
        <path d="M4144.47,253.359L4148.82,257.692L4148.82,253.359L4144.47,253.359Z" style="fill:#c62868;" />
        <path d="M4148.75,482.047L3920.12,482.047L3920.12,253.414L4148.75,482.047Z" style="fill:#c62868;" />
        <path d="M4144.47,482.049L4148.82,486.391L4148.82,482.049L4144.47,482.049Z" style="fill:#a42250;" />
        <path d="M4148.75,710.738L3920.12,710.738L3920.12,482.105L4148.75,710.738Z" style="fill:#a42250;" />
        <path d="M4144.47,710.739L4148.82,715.081L4148.82,710.739L4144.47,710.739Z" style="fill:#c62c71;" />
        <path d="M4148.75,939.425L3920.12,939.425L3920.12,710.8L4148.75,939.425Z" style="fill:#c62c71;" />
        <path d="M4373.19,939.459L4377.53,943.801L4377.53,939.459L4373.19,939.459Z" style="fill:#c62c71;" />
        <path d="M4377.47,1168.15L4148.84,1168.15L4148.84,939.518L4377.47,1168.15Z" style="fill:#c62c71;" />
        <path d="M3920.12,482.079L3924.47,482.079L3920.12,477.737L3920.12,482.079Z" style="fill:#e84286;" />
        <path d="M3920.18,253.386L4148.82,253.386L4148.82,482.019L3920.18,253.386Z" style="fill:#e84286;" />
        <path d="M3920.15,710.769L3924.49,710.769L3920.15,706.427L3920.15,710.769Z" style="fill:#b21b67;" />
        <path d="M3920.22,482.076L4148.85,482.076L4148.85,710.709L3920.22,482.076Z" style="fill:#b21b67;" />
        <path d="M4373.15,482.049L4377.48,486.391L4377.48,482.049L4373.15,482.049Z" style="fill:#a4224f;" />
        <path d="M4377.43,710.738L4148.79,710.738L4148.79,482.105L4377.43,710.738Z" style="fill:#a4224f;" />
        <path d="M4148.83,710.769L4153.16,710.769L4148.83,706.427L4148.83,710.769Z" style="fill:#c62c71;" />
        <path d="M4148.89,482.076L4377.52,482.076L4377.52,710.709L4148.89,482.076Z" style="fill:#c62c71;" />
        <path d="M3920.09,939.459L3924.43,939.459L3920.09,935.117L3920.09,939.459Z" style="fill:#891544;" />
        <path d="M3920.15,710.771L4148.78,710.771L4148.78,939.404L3920.15,710.771Z" style="fill:#891544;" />
        <path d="M4601.87,710.724L4606.21,715.066L4606.21,710.724L4601.87,710.724Z" style="fill:#a32250;" />
        <path d="M4606.15,939.417L4377.51,939.417L4377.51,710.783L4606.15,939.417Z" style="fill:#a32250;" />
        <path d="M4377.48,939.444L4381.83,939.444L4377.48,935.102L4377.48,939.444Z" style="fill:#c1166b;" />
        <path d="M4377.55,710.754L4606.18,710.754L4606.18,939.387L4377.55,710.754Z" style="fill:#c1166b;" />
        <path d="M4606.16,710.754L4377.53,710.754L4377.53,482.121L4606.16,710.754Z" style="fill:#891544;" />
        <path d="M3920.18,939.49L4148.82,939.49L4148.82,1168.12L3920.18,939.49Z" style="fill:#db3589;" />
        <path d="M4148.82,1168.19L4153.15,1168.19L4148.82,1163.84L4148.82,1168.19Z" style="fill:#db3589;" />
        <path d="M4148.87,939.49L4377.5,939.49L4377.5,1168.12L4148.87,939.49Z" style="fill:#db3589;" />
        <path d="M4377.53,1163.23L4377.53,934.595L4606.17,934.595L4377.53,1163.23Z" style="fill:#891544;" />
        <path d="M1206.23,713.844L1206.23,718.111L1210.5,713.844L1206.23,713.844Z" style="fill:#46a2e7;" />
        <path d="M1206.29,938.79L1431.17,938.79L1431.17,713.907L1206.29,938.79Z" style="fill:#46a2e7;" />
        <path d="M981.25,938.822L981.25,943.097L985.517,938.822L981.25,938.822Z" style="fill:#327cc2;" />
        <path d="M981.312,1163.77L1206.2,1163.77L1206.2,938.89L981.312,1163.77Z" style="fill:#327cc2;" />
        <path d="M1206.2,488.985L1206.2,713.868L1431.08,713.868L1206.2,488.985Z" style="fill:#307ac1;" />
        <path d="M981.295,488.889L981.295,493.164L985.562,488.889L981.295,488.889Z" style="fill:#46a2e7;" />
        <path d="M981.357,713.842L1206.24,713.842L1206.24,488.959L981.357,713.842Z" style="fill:#46a2e7;" />
        <path d="M1201.94,713.874L1206.21,713.874L1206.21,709.607L1201.94,713.874Z" style="fill:#3c8fd8;" />
        <path d="M1206.15,488.924L981.266,488.924L981.266,713.807L1206.15,488.924Z" style="fill:#3c8fd8;" />
        <path d="M1426.94,938.822L1431.2,938.822L1431.2,934.547L1426.94,938.822Z" style="fill:#3b8ed7;" />
        <path d="M1431.15,713.872L1206.26,713.872L1206.26,938.755L1431.15,713.872Z" style="fill:#3b8ed7;" />
        <path d="M756.317,713.829L756.317,718.096L760.584,713.829L756.317,713.829Z" style="fill:#46a2e7;" />
        <path d="M756.377,938.773L981.261,938.773L981.261,713.89L756.377,938.773Z" style="fill:#46a2e7;" />
        <path d="M977.02,938.807L981.295,938.807L981.295,934.532L977.02,938.807Z" style="fill:#3d90d9;" />
        <path d="M981.231,713.859L756.347,713.859L756.347,938.742L981.231,713.859Z" style="fill:#3d90d9;" />
        <path d="M756.361,713.859L981.244,713.859L981.244,488.967L756.361,713.859Z" style="fill:#46a2e7;" />
        <path d="M1426.91,1163.8L1431.17,1163.8L1431.17,1159.53L1426.91,1163.8Z" style="fill:#3b8dd7;" />
        <path d="M1431.12,938.855L1206.23,938.855L1206.23,1163.74L1431.12,938.855Z" style="fill:#3b8dd7;" />
        <path d="M1201.96,1163.8L1206.23,1163.8L1206.23,1159.53L1201.96,1163.8Z" style="fill:#1e4f82;" />
        <path d="M1206.17,938.855L981.282,938.855L981.282,1163.74L1206.17,938.855Z" style="fill:#1e4f82;" />
        <path d="M981.247,1158.92L981.247,934.04L756.364,934.04L981.247,1158.92Z" style="fill:#337ec3;" />
        <path d="M1206.17,938.822L1206.17,943.097L1210.43,938.822L1206.17,938.822Z" style="fill:#46a2e7;" />
        <path d="M1206.23,1163.77L1431.12,1163.77L1431.12,938.89L1206.23,1163.77Z" style="fill:#46a2e7;" />
        <path d="M1944.5,468.807L1713.37,468.807L1713.37,699.948L1944.5,468.807Z" style="fill:#49a251;" />
        <path d="M1944.52,934.777L1713.39,934.777L1713.39,1165.91L1944.52,934.777Z" style="fill:#49a04f;" />
        <path d="M1486.57,241.142L1717.71,241.142L1717.71,10L1486.57,241.142Z" style="fill:#54b65e;" />
        <path d="M1486.54,241.142L1486.54,245.525L1490.93,241.142L1486.54,241.142Z" style="fill:#3c7e3f;" />
        <path d="M1486.6,472.343L1717.74,472.343L1717.74,241.202L1486.6,472.343Z" style="fill:#3c7e3f;" />
        <path d="M1708.47,468.729L1708.47,473.121L1712.86,468.729L1708.47,468.729Z" style="fill:#397a3f;" />
        <path d="M1708.53,699.931L1939.67,699.931L1939.67,468.789L1708.53,699.931Z" style="fill:#397a3f;" />
        <path d="M1708.53,934.742L1708.53,939.133L1712.92,934.742L1708.53,934.742Z" style="fill:#38793f;" />
        <path d="M1708.6,1165.95L1939.73,1165.95L1939.73,934.813L1708.6,1165.95Z" style="fill:#38793f;" />
        <path d="M1486.54,472.344L1486.54,476.727L1490.93,472.344L1486.54,472.344Z" style="fill:#52b359;" />
        <path d="M1486.6,703.544L1717.74,703.544L1717.74,472.411L1486.6,703.544Z" style="fill:#52b359;" />
        <path d="M1486.54,703.547L1486.54,707.938L1490.93,703.547L1486.54,703.547Z" style="fill:#54b85f;" />
        <path d="M1486.6,934.745L1717.74,934.745L1717.74,703.612L1486.6,934.745Z" style="fill:#54b85f;" />
        <path d="M1713.36,472.374L1717.74,472.374L1717.74,467.991L1713.36,472.374Z" style="fill:#49a04f;" />
        <path d="M1717.68,241.174L1486.54,241.174L1486.54,472.307L1717.68,241.174Z" style="fill:#49a04f;" />
        <path d="M1713.32,703.577L1717.71,703.577L1717.71,699.193L1713.32,703.577Z" style="fill:#49a051;" />
        <path d="M1717.64,472.376L1486.5,472.376L1486.5,703.509L1717.64,472.376Z" style="fill:#49a051;" />
        <path d="M1713.38,934.779L1717.78,934.779L1717.78,930.396L1713.38,934.779Z" style="fill:#49a351;" />
        <path d="M1717.71,703.577L1486.57,703.577L1486.57,934.71L1717.71,703.577Z" style="fill:#49a351;" />
        <path d="M1717.74,1165.95L1717.74,934.813L1486.61,934.813L1717.74,1165.95Z" style="fill:#3d723b;" />
        <path d="M2440.44,725.372L2440.44,729.522L2444.59,725.372L2440.44,725.372Z" style="fill:#f5ca45;" />
        <path d="M2440.5,943.843L2658.91,943.843L2658.91,725.427L2440.5,943.843Z" style="fill:#f5ca45;" />
        <path d="M2221.94,943.869L2221.94,948.019L2226.09,943.869L2221.94,943.869Z" style="fill:#f5ca45;" />
        <path d="M2222,1162.34L2440.41,1162.34L2440.41,943.933L2222,1162.34Z" style="fill:#f5ca45;" />
        <path d="M2440.41,506.987L2440.41,725.395L2658.82,725.395L2440.41,506.987Z" style="fill:#af902f;" />
        <path d="M2221.98,506.897L2221.98,511.047L2226.13,506.897L2221.98,506.897Z" style="fill:#f5ca45;" />
        <path d="M2222.04,725.37L2440.45,725.37L2440.45,506.962L2222.04,725.37Z" style="fill:#f5ca45;" />
        <path d="M2436.28,725.402L2440.42,725.402L2440.42,721.252L2436.28,725.402Z" style="fill:#f9d94b;" />
        <path d="M2440.37,506.929L2221.96,506.929L2221.96,725.337L2440.37,506.929Z" style="fill:#f9d94b;" />
        <path d="M2654.79,943.869L2658.95,943.869L2658.95,939.727L2654.79,943.869Z" style="fill:#e3bd41;" />
        <path d="M2658.88,725.399L2440.47,725.399L2440.47,943.807L2658.88,725.399Z" style="fill:#e3bd41;" />
        <path d="M2003.49,725.357L2003.49,729.498L2007.63,725.357L2003.49,725.357Z" style="fill:#f5ca45;" />
        <path d="M2003.54,943.827L2221.95,943.827L2221.95,725.419L2003.54,943.827Z" style="fill:#f5ca45;" />
        <path d="M2217.84,943.854L2221.99,943.854L2221.99,939.704L2217.84,943.854Z" style="fill:#ad8f2d;" />
        <path d="M2221.93,725.382L2003.52,725.382L2003.52,943.791L2221.93,725.382Z" style="fill:#ad8f2d;" />
        <path d="M2003.53,725.382L2221.94,725.382L2221.94,506.974L2003.53,725.382Z" style="fill:#e0ba3f;" />
        <path d="M2654.76,1162.37L2658.91,1162.37L2658.91,1158.22L2654.76,1162.37Z" style="fill:#f9d849;" />
        <path d="M2658.86,943.901L2440.44,943.901L2440.44,1162.31L2658.86,943.901Z" style="fill:#f9d849;" />
        <path d="M2436.3,1162.37L2440.45,1162.37L2440.45,1158.22L2436.3,1162.37Z" style="fill:#e1ba3f;" />
        <path d="M2440.38,943.901L2221.97,943.901L2221.97,1162.31L2440.38,943.901Z" style="fill:#e1ba3f;" />
        <path d="M2221.94,1157.64L2221.94,939.221L2003.53,939.221L2221.94,1157.64Z" style="fill:#f9d748;" />
        <path d="M2440.38,943.869L2440.38,948.019L2444.52,943.869L2440.38,943.869Z" style="fill:#f5ca45;" />
        <path d="M2440.44,1162.34L2658.86,1162.34L2658.86,943.933L2440.44,1162.34Z" style="fill:#f5ca45;" />
        <path d="M3642.48,717.707L3642.48,721.865L3646.63,717.707L3642.48,717.707Z" style="fill:#a32116;" />
        <path d="M3642.54,936.577L3861.36,936.577L3861.36,717.76L3642.54,936.577Z" style="fill:#a32116;" />
        <path d="M3423.58,936.609L3423.58,940.759L3427.74,936.609L3423.58,936.609Z" style="fill:#ea3223;" />
        <path d="M3423.63,1155.48L3642.45,1155.48L3642.45,936.664L3423.63,1155.48Z" style="fill:#ea3223;" />
        <path d="M3642.45,498.922L3642.45,717.73L3861.27,717.73L3642.45,498.922Z" style="fill:#a21f16;" />
        <path d="M3423.62,498.827L3423.62,502.985L3427.78,498.827L3423.62,498.827Z" style="fill:#ca2a1e;" />
        <path d="M3423.68,717.704L3642.5,717.704L3642.5,498.887L3423.68,717.704Z" style="fill:#ca2a1e;" />
        <path d="M3638.31,717.729L3642.47,717.729L3642.47,713.579L3638.31,717.729Z" style="fill:#ea3223;" />
        <path d="M3642.41,498.861L3423.59,498.861L3423.59,717.669L3642.41,498.861Z" style="fill:#ea3223;" />
        <path d="M3857.23,936.609L3861.39,936.609L3861.39,932.451L3857.23,936.609Z" style="fill:#ca2a1e;" />
        <path d="M3861.32,717.732L3642.51,717.732L3642.51,936.541L3861.32,717.732Z" style="fill:#ca2a1e;" />
        <path d="M3204.72,717.692L3204.72,721.842L3208.87,717.692L3204.72,717.692Z" style="fill:#ca2a1e;" />
        <path d="M3204.78,936.56L3423.6,936.56L3423.6,717.752L3204.78,936.56Z" style="fill:#ca2a1e;" />
        <path d="M3419.47,936.594L3423.62,936.594L3423.62,932.436L3419.47,936.594Z" style="fill:#e7483d;" />
        <path d="M3423.56,717.717L3204.74,717.717L3204.74,936.525L3423.56,717.717Z" style="fill:#e7483d;" />
        <path d="M3204.76,717.717L3423.58,717.717L3423.58,498.908L3204.76,717.717Z" style="fill:#ca2a1e;" />
        <path d="M3857.19,1155.51L3861.36,1155.51L3861.36,1151.35L3857.19,1155.51Z" style="fill:#ca2a1e;" />
        <path d="M3861.3,936.633L3642.48,936.633L3642.48,1155.45L3861.3,936.633Z" style="fill:#ca2a1e;" />
        <path d="M3638.32,1155.51L3642.49,1155.51L3642.49,1151.35L3638.32,1155.51Z" style="fill:#ca2a1e;" />
        <path d="M3642.42,936.633L3423.61,936.633L3423.61,1155.45L3642.42,936.633Z" style="fill:#ca2a1e;" />
        <path d="M3423.58,1150.77L3423.58,931.952L3204.76,931.952L3423.58,1150.77Z" style="fill:#9f1f13;" />
        <path d="M3642.41,936.609L3642.41,940.759L3646.57,936.609L3642.41,936.609Z" style="fill:#e5463b;" />
        <path d="M3642.48,1155.48L3861.3,1155.48L3861.3,936.664L3642.48,1155.48Z" style="fill:#e5463b;" />
        <path d="M3170.98,927.486L2942.21,927.486L2942.21,1156.26L3170.98,927.486Z" style="fill:#f29f39;" />
        <path d="M2717.71,240.926L2946.48,240.926L2946.48,12.151L2717.71,240.926Z" style="fill:#f29f39;" />
        <path d="M2717.68,240.924L2717.68,245.274L2722.02,240.924L2717.68,240.924Z" style="fill:#d38730;" />
        <path d="M2717.74,469.767L2946.52,469.767L2946.52,240.992L2717.74,469.767Z" style="fill:#d38730;" />
        <path d="M2717.68,469.764L2717.68,474.114L2722.02,469.764L2717.68,469.764Z" style="fill:#f4b051;" />
        <path d="M2717.74,698.608L2946.52,698.608L2946.52,469.833L2717.74,698.608Z" style="fill:#f4b051;" />
        <path d="M2717.68,698.612L2717.68,702.953L2722.02,698.612L2717.68,698.612Z" style="fill:#da9241;" />
        <path d="M2717.74,927.453L2946.52,927.453L2946.52,698.67L2717.74,927.453Z" style="fill:#da9241;" />
        <path d="M2942.17,469.802L2946.52,469.802L2946.52,465.452L2942.17,469.802Z" style="fill:#f4b051;" />
        <path d="M2946.45,240.958L2717.68,240.958L2717.68,469.742L2946.45,240.958Z" style="fill:#f4b051;" />
        <path d="M2942.14,698.642L2946.48,698.642L2946.48,694.292L2942.14,698.642Z" style="fill:#f29f39;" />
        <path d="M2946.42,469.8L2717.65,469.8L2717.65,698.583L2946.42,469.8Z" style="fill:#f29f39;" />
        <path d="M2942.21,927.489L2946.55,927.489L2946.55,923.139L2942.21,927.489Z" style="fill:#ffb65f;" />
        <path d="M2946.49,698.641L2717.71,698.641L2717.71,927.424L2946.49,698.641Z" style="fill:#ffb65f;" />
        <path d="M2946.52,1156.3L2946.52,927.512L2717.74,927.512L2946.52,1156.3Z" style="fill:#f4af50;" />
        <path d="M2942.17,925.329L2942.17,929.662L2946.52,925.329L2942.17,925.329Z" style="fill:#d58a31;" />
        <path d="M2942.24,1154.16L3171.01,1154.16L3171.01,925.387L2942.24,1154.16Z" style="fill:#d58a31;" />
    </g>
    <g>
        <path d="M3466.43,245.811C3466.43,269.331 3437.16,267.936 3437.16,267.936L3407.89,267.936L3407.89,225.427L3437.16,225.427C3467.3,225.254 3466.43,245.811 3466.43,245.811M3407.89,160.617L3430.19,160.617C3453.36,161.838 3452.49,179.084 3452.49,179.084C3452.49,200.513 3426.88,200.862 3426.88,200.862L3407.89,200.862L3407.89,160.617ZM3461.03,209.225C3461.03,209.225 3481.06,200.689 3480.89,178.039C3480.89,178.039 3483.93,140.932 3434.76,136.402L3380.19,136.402L3380.19,291.979L3442.74,291.979C3442.74,291.979 3495,292.154 3495,248.075C3495,248.075 3496.22,218.11 3461.03,209.225M3319.82,105.915L3549.53,105.915L3549.53,322.388L3319.82,322.388L3319.82,105.915Z" style="" />
        <path d="M3201.53,245.811C3201.53,269.331 3172.26,267.936 3172.26,267.936L3142.99,267.936L3142.99,225.427L3172.26,225.427C3202.4,225.254 3201.53,245.811 3201.53,245.811M3142.99,160.617L3165.29,160.617C3188.46,161.838 3187.59,179.084 3187.59,179.084C3187.59,200.513 3161.98,200.862 3161.98,200.862L3142.99,200.862L3142.99,160.617ZM3196.13,209.225C3196.13,209.225 3216.16,200.689 3215.99,178.039C3215.99,178.039 3219.03,140.932 3169.86,136.402L3115.29,136.402L3115.29,291.979L3177.83,291.979C3177.83,291.979 3230.1,292.154 3230.1,248.075C3230.1,248.075 3231.32,218.11 3196.13,209.225M3054.91,105.915L3284.63,105.915L3284.63,322.388L3054.91,322.388L3054.91,105.915Z" style="" />
        <path d="M3769.85,145.37L3769.85,174.475C3769.85,174.475 3741.45,157.012 3710.05,156.658C3710.05,156.658 3651.49,155.515 3648.85,212.799C3648.85,212.799 3646.73,265.496 3709.35,268.495C3709.35,268.495 3735.63,271.67 3771.26,248.915L3771.26,279.079C3771.26,279.079 3723.46,307.478 3668.07,285.605C3668.07,285.605 3621.5,268.586 3619.74,212.799C3619.74,212.799 3617.8,155.424 3679.89,136.374C3679.89,136.374 3696.47,130.023 3726.28,132.845C3726.28,132.845 3744.1,134.61 3769.85,145.37M3584.72,322.388L3817.3,322.388L3817.3,103.21L3584.72,103.21L3584.72,322.388Z" style="" />
    </g>
</svg>